<svg width="204" height="63" viewBox="0 0 204 63" fill="none" xmlns="http://www.w3.org/2000/svg">
<path d="M34.1292 13.2813C32.9637 10.8838 31.3852 8.91368 29.8798 7.53694C28.1314 5.99404 24.7197 3.67969 18.7219 3.67969C8.32893 3.67969 2.50111 11.05 2.50111 18.7645C2.50111 27.3335 9.23952 31.2857 13.8168 33.2559L19.1468 35.5702C22.8135 37.1131 27.1358 39.5106 27.1358 45.338C27.1358 51.1653 23.1414 54.9395 17.9812 54.9395C14.6546 54.9395 12.3234 53.5627 10.7451 51.5096C9.4095 49.7056 8.41392 47.0469 8.41392 44.2223L0 46.1093C0.327815 50.0497 1.66336 53.8239 4.66226 57.2539C7.49118 60.5058 11.3157 62.9981 17.7263 62.9981C28.1314 62.9981 35.6226 55.5448 35.6226 44.6495C35.6226 38.1337 32.7937 32.1283 22.5585 27.8438L16.9857 25.5295C11.5707 23.2982 10.9879 20.2955 10.9879 18.5865C10.9879 14.8953 13.6468 11.7265 18.8069 11.7265C21.223 11.7265 23.0563 12.3318 24.8047 13.7797C26.0552 14.8953 26.8079 16.0941 27.3057 17.3759L34.1292 13.2575V13.2813Z" fill="#201579"/>
<path d="M43.21 11.0001V61.88H51.3689V47.994L52.8623 46.4511L64.3479 61.88H74.668L58.5201 40.7899L73.5875 25.7881H62.7695L51.3689 37.882V6.03906L43.21 11.0001Z" fill="#201579"/>
<path d="M103.928 29.9906C100.601 25.5281 96.1086 24.8516 93.5225 24.8516C84.2829 24.8516 76.4639 32.0558 76.4639 43.7936C76.4639 53.7394 82.6196 62.9967 93.4497 62.9967C95.9507 62.9967 100.358 62.3915 103.94 58.1069V61.8811H112.099V25.7892H103.94V29.9906H103.928ZM94.518 32.3881C99.6781 32.3881 104.425 36.1622 104.425 44.0429C104.425 51.9236 99.6781 55.4485 94.518 55.4485C88.6052 55.4485 84.7807 50.2145 84.7807 43.9598C84.7807 37.7052 88.6052 32.3881 94.518 32.3881Z" fill="#201579"/>
<path d="M120.612 61.8772H128.771V44.5613C128.771 32.9064 132.511 32.3842 136.177 32.3842C139.261 32.3842 142.587 32.6453 142.587 41.8197V61.8772H150.747V39.7545C150.747 34.1882 149.921 31.6959 148.586 29.7257C147.506 28.1828 144.762 24.8359 138.266 24.8359C136.262 24.8359 132.268 25.097 128.771 29.1204V25.7736H120.612V61.8655V61.8772Z" fill="#201579"/>
<path fill-rule="evenodd" clip-rule="evenodd" d="M179.312 0L192.085 33.3385H184.314L175.864 9.94576L167.183 33.3385H159.413L172.476 0H179.312Z" fill="#201579"/>
<path d="M195.997 0H203.477V33.3385H195.997V0Z" fill="#201579"/>
</svg>
