<svg fill="none" height="26" viewBox="0 0 112 26" width="112" xmlns="http://www.w3.org/2000/svg">
<g clip-path="url(#clip0_18052_15445)">
<path d="M12.5632 12.0915C12.5632 13.6677 12.0192 14.8213 10.9322 15.5525C9.84532 16.2837 8.33591 16.6493 6.40504 16.6493H0.474609V0.917969H6.0515C8.07318 0.917969 9.5224 1.21132 10.397 1.79911C11.2715 2.3869 11.7083 3.3162 11.7083 4.59029C11.7083 5.56775 11.4708 6.36025 10.9957 6.9666C10.5207 7.573 9.77746 7.97802 8.76604 8.18271C10.0894 8.36439 11.0527 8.78144 11.6569 9.43269C12.261 10.0851 12.5632 10.9717 12.5632 12.0926V12.0915ZM8.4574 5.2941C8.4574 4.69537 8.23627 4.28052 7.79627 4.04957C7.35517 3.81861 6.67103 3.70258 5.74391 3.70258H3.69158V7.07827H5.65304C6.60317 7.07827 7.30805 6.9458 7.76891 6.68091C8.2286 6.41603 8.45851 5.95304 8.45851 5.2941H8.4574ZM9.27831 11.808C9.27831 11.103 9.03859 10.605 8.5603 10.3127C8.08085 10.0216 7.18441 9.8749 5.86871 9.8749H3.69048V13.8078H5.32141C6.5758 13.8078 7.44052 13.7476 7.91555 13.6261C8.39064 13.5045 8.73652 13.2998 8.95324 13.012C9.16995 12.7241 9.27831 12.3224 9.27831 11.8069V11.808Z" fill="black"></path>
<path d="M13.7324 16.6504L18.9558 0.917969H23.1415L28.3757 16.6504H25.08L24.0302 13.4564H17.9521L16.9254 16.6504H13.7324ZM18.8638 10.6488H23.1174L20.9961 4.14698L18.8638 10.6488Z" fill="black"></path>
<path d="M39.341 16.6504L33.5933 5.40794V16.6504H30.4453V0.917969H34.619L39.9671 11.5244V0.917969H43.1261V16.6504H39.3399H39.341Z" fill="black"></path>
<path d="M55.0508 16.6504L50.6834 10.0796L49.7257 11.1818V16.6493H46.5098V0.917969H49.7257V7.05636L54.8921 0.917969H58.6445L52.7598 7.69344L59.0655 16.6515H55.0519L55.0508 16.6504Z" fill="black"></path>
<path d="M61.1406 16.6504V0.917969H64.3566V13.718H70.9939V16.6504H61.1406Z" fill="black"></path>
<path d="M73.0566 16.6504V0.917969H83.3088V3.74856H76.2726V7.10238H82.2031V9.94387H76.2726V13.718H83.3088V16.6504H73.0566Z" fill="black"></path>
<path d="M97.6302 12.0911C97.6302 13.6673 97.1115 14.8757 96.0738 15.7174C95.036 16.5592 93.506 16.9795 91.484 16.9795C90.0853 16.9795 88.8705 16.7485 87.8404 16.2866C86.8103 15.8247 85.9717 15.0782 85.3262 14.0471L87.8007 12.16C88.1653 12.6756 88.5113 13.062 88.8384 13.3192C89.1656 13.5764 89.5535 13.7778 90.002 13.9212C90.4511 14.0657 90.9675 14.1368 91.5529 14.1368C92.428 14.1368 93.1093 13.9869 93.5998 13.6881C94.0903 13.3892 94.3353 12.9317 94.3353 12.3187C94.3353 11.9707 94.2503 11.6784 94.0793 11.4431C93.9088 11.2077 93.6517 11.0052 93.3102 10.8345C92.9687 10.6637 92.375 10.4689 91.5314 10.2489C90.7104 10.0289 89.9364 9.80779 89.2109 9.5834C88.4848 9.36012 87.858 9.07002 87.3289 8.71427C86.8004 8.35857 86.3844 7.91085 86.0804 7.37236C85.7758 6.83488 85.6236 6.15625 85.6236 5.33751C85.6236 3.8445 86.1295 2.67987 87.1408 1.84252C88.1521 1.00516 89.6004 0.585938 91.4851 0.585938C94.2139 0.585938 96.146 1.51852 97.2787 3.38259L94.8269 5.29264C94.3938 4.62604 93.9077 4.1488 93.367 3.85983C92.8274 3.57196 92.1847 3.42747 91.4393 3.42747C90.6939 3.42747 90.0876 3.5621 89.6202 3.83137C89.1529 4.10064 88.9184 4.52315 88.9184 5.0989C88.9184 5.60678 89.1612 5.99536 89.6484 6.26351C90.1344 6.53281 90.983 6.80315 92.1913 7.0757C92.86 7.24977 93.5209 7.43802 94.1758 7.6383C94.8291 7.83973 95.4128 8.11774 95.9259 8.4735C96.4396 8.82925 96.8522 9.29551 97.164 9.87129C97.4757 10.447 97.6313 11.1859 97.6313 12.0878L97.6302 12.0911Z" fill="black"></path>
<path d="M111.765 12.0911C111.765 13.6673 111.246 14.8757 110.209 15.7174C109.171 16.5592 107.641 16.9795 105.619 16.9795C104.22 16.9795 103.005 16.7485 101.975 16.2866C100.945 15.8247 100.106 15.0782 99.4609 14.0471L101.935 12.16C102.3 12.6756 102.646 13.062 102.973 13.3192C103.3 13.5764 103.688 13.7778 104.137 13.9212C104.585 14.0657 105.102 14.1368 105.688 14.1368C106.562 14.1368 107.244 13.9869 107.735 13.6881C108.225 13.3892 108.47 12.9317 108.47 12.3187C108.47 11.9707 108.385 11.6784 108.214 11.4431C108.044 11.2077 107.786 11.0052 107.444 10.8345C107.103 10.6637 106.51 10.4689 105.666 10.2489C104.845 10.0289 104.071 9.80779 103.346 9.5834C102.62 9.36012 101.993 9.07002 101.464 8.71427C100.935 8.35857 100.519 7.91085 100.215 7.37236C99.9106 6.83488 99.7583 6.15625 99.7583 5.33751C99.7583 3.8445 100.264 2.67987 101.276 1.84252C102.287 1.00516 103.735 0.585938 105.62 0.585938C108.349 0.585938 110.281 1.51852 111.413 3.38259L108.962 5.29264C108.529 4.62604 108.042 4.1488 107.502 3.85983C106.962 3.57196 106.319 3.42747 105.574 3.42747C104.829 3.42747 104.222 3.5621 103.755 3.83137C103.287 4.10064 103.053 4.52315 103.053 5.0989C103.053 5.60678 103.296 5.99536 103.783 6.26351C104.269 6.53281 105.118 6.80315 106.326 7.0757C106.995 7.24977 107.656 7.43802 108.311 7.6383C108.964 7.83973 109.548 8.11774 110.061 8.4735C110.574 8.82925 110.986 9.29551 111.299 9.87129C111.61 10.447 111.766 11.1859 111.766 12.0878L111.765 12.0911Z" fill="black"></path>
<path d="M111.751 22.2617H0.462891V25.308H111.751V22.2617Z" fill="#EB212E"></path>
</g>
<defs>
<clipPath id="clip0_18052_15445">
<rect fill="white" height="24.8276" transform="translate(0 0.585938)" width="112"></rect>
</clipPath>
</defs>
</svg>